<mxfile host="app.diagrams.net" modified="2024-05-16T06:09:43.397Z" agent="Mozilla/5.0 (Windows NT 10.0; Win64; x64) AppleWebKit/537.36 (KHTML, like Gecko) Chrome/124.0.0.0 Safari/537.36" etag="p8GXsuFqtXUmFWfH0BG6" version="24.4.2" type="github">
  <diagram id="-nUlbiPWIa_YUagmwYu6" name="第 1 页">
    <mxGraphModel dx="2074" dy="1098" grid="1" gridSize="10" guides="1" tooltips="1" connect="1" arrows="1" fold="1" page="1" pageScale="1" pageWidth="1200" pageHeight="1920" math="0" shadow="0">
      <root>
        <mxCell id="0" />
        <mxCell id="1" parent="0" />
        <mxCell id="xfbAxuXr3Si1YzYXhxK_-103" value="" style="shape=folder;fontStyle=1;spacingTop=10;tabWidth=40;tabHeight=14;tabPosition=left;html=1;fontSize=18;verticalAlign=top;fillColor=#fff2cc;strokeColor=#d6b656;" parent="1" vertex="1">
          <mxGeometry x="40.5" y="505" width="1120" height="185" as="geometry" />
        </mxCell>
        <mxCell id="xfbAxuXr3Si1YzYXhxK_-35" value="ZJ-01&#xa;需求管理" style="shape=module;align=center;spacingLeft=20;align=center;verticalAlign=middle;whiteSpace=wrap;labelPosition=center;verticalLabelPosition=middle;fillColor=#dae8fc;strokeColor=#6c8ebf;" parent="1" vertex="1">
          <mxGeometry x="61" y="580" width="110" height="50" as="geometry" />
        </mxCell>
        <mxCell id="xfbAxuXr3Si1YzYXhxK_-36" value="ZJ-02&#xa;项目管理" style="shape=module;align=center;spacingLeft=20;align=center;verticalAlign=middle;whiteSpace=wrap;labelPosition=center;verticalLabelPosition=middle;fillColor=#dae8fc;strokeColor=#6c8ebf;" parent="1" vertex="1">
          <mxGeometry x="197" y="580" width="110" height="50" as="geometry" />
        </mxCell>
        <mxCell id="xfbAxuXr3Si1YzYXhxK_-37" value="ZJ-03&#xa;入场管理" style="shape=module;align=center;spacingLeft=20;align=center;verticalAlign=middle;whiteSpace=wrap;labelPosition=center;verticalLabelPosition=middle;fillColor=#dae8fc;strokeColor=#6c8ebf;" parent="1" vertex="1">
          <mxGeometry x="332" y="580" width="110" height="50" as="geometry" />
        </mxCell>
        <mxCell id="xfbAxuXr3Si1YzYXhxK_-38" value="ZJ-04&#xa;运维管理" style="shape=module;align=center;spacingLeft=20;align=center;verticalAlign=middle;whiteSpace=wrap;labelPosition=center;verticalLabelPosition=middle;fillColor=#dae8fc;strokeColor=#6c8ebf;" parent="1" vertex="1">
          <mxGeometry x="468" y="580" width="110" height="50" as="geometry" />
        </mxCell>
        <mxCell id="xfbAxuXr3Si1YzYXhxK_-39" value="ZJ-06&#xa;厂商管理" style="shape=module;align=center;spacingLeft=20;align=center;verticalAlign=middle;whiteSpace=wrap;labelPosition=center;verticalLabelPosition=middle;fillColor=#dae8fc;strokeColor=#6c8ebf;" parent="1" vertex="1">
          <mxGeometry x="740" y="580" width="110" height="50" as="geometry" />
        </mxCell>
        <mxCell id="xfbAxuXr3Si1YzYXhxK_-44" value="ZJ-05&#xa;验收管理" style="shape=module;align=center;spacingLeft=20;align=center;verticalAlign=middle;whiteSpace=wrap;labelPosition=center;verticalLabelPosition=middle;fillColor=#dae8fc;strokeColor=#6c8ebf;" parent="1" vertex="1">
          <mxGeometry x="604" y="580" width="110" height="50" as="geometry" />
        </mxCell>
        <mxCell id="xfbAxuXr3Si1YzYXhxK_-45" value="ZJ-07&#xa;项目总览" style="shape=module;align=center;spacingLeft=20;align=center;verticalAlign=middle;whiteSpace=wrap;labelPosition=center;verticalLabelPosition=middle;fillColor=#dae8fc;strokeColor=#6c8ebf;" parent="1" vertex="1">
          <mxGeometry x="875" y="580" width="110" height="50" as="geometry" />
        </mxCell>
        <mxCell id="xfbAxuXr3Si1YzYXhxK_-46" value="ZJ-08&#xa;基础信息管理" style="shape=module;align=center;spacingLeft=20;align=center;verticalAlign=middle;whiteSpace=wrap;labelPosition=center;verticalLabelPosition=middle;fillColor=#dae8fc;strokeColor=#6c8ebf;" parent="1" vertex="1">
          <mxGeometry x="1011" y="580" width="110" height="50" as="geometry" />
        </mxCell>
      </root>
    </mxGraphModel>
  </diagram>
</mxfile>
